<svg width="1" height="1" viewBox="0 0 1 1" fill="none" xmlns="http://www.w3.org/2000/svg">
<path fill-rule="evenodd" clip-rule="evenodd" d="M0 1.0033L0.0416667 0.904974C0.0833333 0.806649 0.166667 0.609999 0.25 0.560836C0.333333 0.511674 0.416667 0.609999 0.5 0.577224C0.583333 0.544449 0.666667 0.380574 0.75 0.396961C0.833333 0.413349 0.916667 0.609999 0.958333 0.708324L1 0.806649V1.0033H0.958333C0.916667 1.0033 0.833333 1.0033 0.75 1.0033C0.666667 1.0033 0.583333 1.0033 0.5 1.0033C0.416667 1.0033 0.333333 1.0033 0.25 1.0033C0.166667 1.0033 0.0833333 1.0033 0.0416667 1.0033H0Z" fill="#FF4343" fill-opacity="0.5"/>
<path fill-rule="evenodd" clip-rule="evenodd" d="M0 0.707173L0.0416667 0.641623C0.0833333 0.576074 0.166667 0.444974 0.25 0.379424C0.333333 0.313874 0.416667 0.313874 0.5 0.379424C0.583333 0.444974 0.666667 0.576074 0.75 0.690786C0.833333 0.805498 0.916667 0.903823 0.958333 0.952986L1 1.00215V1.00215H0.958333C0.916667 1.00215 0.833333 1.00215 0.75 1.00215C0.666667 1.00215 0.583333 1.00215 0.5 1.00215C0.416667 1.00215 0.333333 1.00215 0.25 1.00215C0.166667 1.00215 0.0833333 1.00215 0.0416667 1.00215H0V0.707173Z" fill="#FF4343" fill-opacity="0.6"/>
<path fill-rule="evenodd" clip-rule="evenodd" d="M0 0.511867L0.0416667 0.577418C0.0833333 0.642969 0.166667 0.774071 0.25 0.692132C0.333333 0.610194 0.416667 0.315213 0.5 0.216887C0.583333 0.11856 0.666667 0.216887 0.75 0.364377C0.833333 0.511867 0.916667 0.70852 0.958333 0.806847L1 0.905174V1.0035H0.958333C0.916667 1.0035 0.833333 1.0035 0.75 1.0035C0.666667 1.0035 0.583333 1.0035 0.5 1.0035C0.416667 1.0035 0.333333 1.0035 0.25 1.0035C0.166667 1.0035 0.0833333 1.0035 0.0416667 1.0035H0V0.511867Z" fill="#FF4343" fill-opacity="0.3"/>
</svg>
